<svg xmlns="http://www.w3.org/2000/svg" version="1.1" xmlns:xlink="http://www.w3.org/1999/xlink" xmlns:svgjs="http://svgjs.dev/svgjs" width="128" height="128" viewBox="0 0 128 128"><g transform="matrix(0.8046875,0,0,0.8046875,12.760752631578946,21.002489862839994)"><svg viewBox="0 0 95 80" data-background-color="#000000" preserveAspectRatio="xMidYMid meet" height="107" width="128" xmlns="http://www.w3.org/2000/svg" xmlns:xlink="http://www.w3.org/1999/xlink"><g id="tight-bounds" transform="matrix(1,0,0,1,-0.24049999999999727,-0.04949607072693141)"><svg viewBox="0 0 95.481 80.09899214145385" height="80.09899214145385" width="95.481"><g><svg viewBox="0 0 95.481 80.09899214145385" height="80.09899214145385" width="95.481"><g><svg viewBox="0 0 95.481 80.09899214145385" height="80.09899214145385" width="95.481"><g id="textblocktransform"><svg viewBox="0 0 95.481 80.09899214145385" height="80.09899214145385" width="95.481" id="textblock"><g><svg viewBox="0 0 95.481 80.09899214145385" height="80.09899214145385" width="95.481"><g><svg viewBox="0 0 95.481 80.09899214145385" height="80.09899214145385" width="95.481"><g><svg xmlns="http://www.w3.org/2000/svg" xmlns:xlink="http://www.w3.org/1999/xlink" version="1.0" x="0" y="0" viewBox="24.5 28.700000000000006 50.89999999999999 42.7" enable-background="new 0 0 100 100" xml:space="preserve" height="80.09899214145385" width="95.481" class="icon-icon-0" data-fill-palette-color="accent" id="icon-0"><path d="M73.4 71.4H30.5c-0.9 0-1.6-0.7-1.6-1.6s0.7-1.6 1.6-1.6h42.9c0.9 0 1.6 0.7 1.6 1.6S74.3 71.4 73.4 71.4z" fill="#624cf5" data-fill-palette-color="accent"></path><path d="M29.9 71.4c-0.5 0-1.1-0.3-1.4-0.8-2.6-4.3-4-9.2-4-14.2 0-15.3 12.5-27.7 27.8-27.7 3.2 0 6.4 0.5 9.4 1.6 0.8 0.3 1.3 1.2 1 2.1-0.3 0.8-1.2 1.3-2.1 1-2.6-0.9-5.4-1.4-8.3-1.4-13.6 0-24.6 11-24.6 24.5 0 4.4 1.2 8.8 3.5 12.6 0.5 0.8 0.2 1.8-0.5 2.2C30.5 71.3 30.2 71.4 29.9 71.4z" fill="#624cf5" data-fill-palette-color="accent"></path><path d="M57.3 51.9c-3.2 0-6.3-1.7-8.3-4.7-0.5-0.7-0.3-1.7 0.5-2.2 0.7-0.5 1.7-0.3 2.2 0.5 1.3 2 3.4 3.2 5.6 3.2 3.9 0 7-3.7 7-8.2 0-3.4-0.1-5.2-3.2-6.9-0.8-0.4-1.1-1.4-0.6-2.2 0.4-0.8 1.4-1.1 2.2-0.6 4.9 2.7 4.9 6.4 4.9 9.7C67.6 46.7 63 51.9 57.3 51.9z" fill="#624cf5" data-fill-palette-color="accent"></path><path d="M50.7 48.2c-0.9 0-1.6-0.7-1.6-1.6s0.7-1.6 1.6-1.6c2.3 0 4.2-1.5 4.2-3.4 0-1.9-1.9-3.4-4.2-3.4-0.9 0-1.6-0.7-1.6-1.6s0.7-1.6 1.6-1.6c4.1 0 7.4 3 7.4 6.6C58.1 45.2 54.7 48.2 50.7 48.2z" fill="#624cf5" data-fill-palette-color="accent"></path><path d="M73.8 63.7H55.5c-8.8 0-16-7.6-16-16.9 0-0.9 0.7-1.6 1.6-1.6s1.6 0.7 1.6 1.6c0 7.5 5.7 13.7 12.8 13.7h18.3c0.9 0 1.6 0.7 1.6 1.6S74.7 63.7 73.8 63.7z" fill="#624cf5" data-fill-palette-color="accent"></path><path d="M41.1 49.5c-0.9 0-1.6-0.7-1.6-1.6C39.5 39.7 43.7 35 51 35c0.9 0 1.6 0.7 1.6 1.6s-0.7 1.6-1.6 1.6c-5.5 0-8.3 3.2-8.3 9.6C42.7 48.8 42 49.5 41.1 49.5z" fill="#624cf5" data-fill-palette-color="accent"></path></svg></g></svg></g></svg></g></svg></g></svg></g></svg></g><defs></defs></svg><rect width="95.481" height="80.09899214145385" fill="none" stroke="none" visibility="hidden"></rect></g></svg></g></svg>