<svg xmlns="http://www.w3.org/2000/svg" version="1.1" xmlns:xlink="http://www.w3.org/1999/xlink" xmlns:svgjs="http://svgjs.dev/svgjs" width="1500" height="280" viewBox="0 0 1500 280"><g transform="matrix(1,0,0,1,-0.9090909090909918,-0.5773592177823161)"><svg viewBox="0 0 396 74" data-background-color="#000000" preserveAspectRatio="xMidYMid meet" height="280" width="1500" xmlns="http://www.w3.org/2000/svg" xmlns:xlink="http://www.w3.org/1999/xlink"><g id="tight-bounds" transform="matrix(1,0,0,1,0.2400000000000091,0.15258779327103866)"><svg viewBox="0 0 395.52 73.69482441345792" height="73.69482441345792" width="395.52"><g><svg viewBox="0 0 509.40493066934835 94.91430754709582" height="73.69482441345792" width="395.52"><g transform="matrix(1,0,0,1,113.88493066934835,27.367624212884675)"><svg viewBox="0 0 395.52 40.17905912132647" height="40.17905912132647" width="395.52"><g id="textblocktransform"><svg viewBox="0 0 395.52 40.17905912132647" height="40.17905912132647" width="395.52" id="textblock"><g><svg viewBox="0 0 395.52 40.17905912132647" height="40.17905912132647" width="395.52"><g transform="matrix(1,0,0,1,0,0)"><svg width="395.52" viewBox="3.91 -35.94 359.5048494672775 36.53" height="40.17905912132647" data-palette-color="#624cf5"><g transform="matrix(1,0,0,1,0,0)"><g><svg width="22.729899644851688" viewBox="1.19 -36.36 96.35000000000001 36.36" height="8.57763671875" data-palette-color="#624cf5" id="scriptelement" x="340.68494982242584" y="-8.57763671875"><path d="M18.55-28.05L9.43 0 1.19 0 13.74-36.36 23.65-36.36 36.19 0 27.95 0 18.84-28.05 18.55-28.05ZM8.91-8.29L8.91-14.29 28.37-14.29 28.37-8.29 8.91-8.29ZM45.82-30.02L34.69-30.02 34.69-36.36 64.56-36.36 64.56-30.02 53.42-30.02 53.42 0 45.82 0 45.82-30.02ZM85.03 0L69.49 0 69.49-36.36 84.05-36.36Q88.06-36.36 90.74-35.17 93.43-33.98 94.77-31.88 96.12-29.78 96.12-27.04L96.12-27.04Q96.12-24.91 95.27-23.3 94.42-21.7 92.94-20.68 91.45-19.66 89.55-19.23L89.55-19.23 89.55-18.87Q91.63-18.79 93.45-17.7 95.27-16.62 96.41-14.68 97.54-12.73 97.54-10.05L97.54-10.05Q97.54-7.16 96.12-4.89 94.69-2.63 91.9-1.31 89.11 0 85.03 0L85.03 0ZM77.18-15.94L77.18-6.29 83.45-6.29Q86.66-6.29 88.13-7.52 89.61-8.75 89.61-10.81L89.61-10.81Q89.61-12.32 88.88-13.48 88.15-14.63 86.81-15.29 85.47-15.94 83.62-15.94L83.62-15.94 77.18-15.94ZM77.18-30.15L77.18-21.15 82.88-21.15Q84.46-21.15 85.69-21.71 86.93-22.27 87.65-23.3 88.37-24.33 88.37-25.76L88.37-25.76Q88.37-27.73 86.97-28.94 85.58-30.15 83.02-30.15L83.02-30.15 77.18-30.15Z" opacity="1" transform="matrix(1,0,0,1,0,0)" fill="#624cf5" class="undefined-123" data-fill-palette-color="primary" id="yy-123"></path></svg></g></g><g class="wordmark-text-0" data-fill-palette-color="primary" id="text-0"><path d="M17.43 0L9.94 0Q7.42 0 6.12-0.63 4.81-1.27 4.36-2.71 3.91-4.15 3.91-6.54L3.91-6.54 3.91-28.47Q3.91-30.91 4.36-32.34 4.81-33.76 6.12-34.39 7.42-35.01 9.94-35.01L9.94-35.01 17.43-35.01Q22.68-35.01 26.62-33.45 30.57-31.88 32.76-28.16 34.96-24.44 34.96-17.94L34.96-17.94Q34.96-11.45 32.76-7.51 30.57-3.56 26.62-1.78 22.68 0 17.43 0L17.43 0ZM15.65-28.59L14.58-28.59Q12.96-28.59 12.38-27.91 11.79-27.22 11.79-25.56L11.79-25.56 11.79-9.45Q11.79-7.81 12.38-7.1 12.96-6.4 14.58-6.4L14.58-6.4 15.7-6.4Q20.92-6.4 23.79-8.96 26.66-11.52 26.66-17.85L26.66-17.85Q26.66-22.07 25.35-24.4 24.05-26.73 21.58-27.66 19.12-28.59 15.65-28.59L15.65-28.59ZM59.37 0L47.09 0Q44.58 0 43.27-0.63 41.97-1.27 41.51-2.71 41.06-4.15 41.06-6.54L41.06-6.54 41.06-28.47Q41.06-30.91 41.51-32.34 41.97-33.76 43.27-34.39 44.58-35.01 47.09-35.01L47.09-35.01 58.57-35.01Q59.15-35.01 59.45-34.81L59.45-34.81Q60.08-34.38 60.76-33.76 61.45-33.15 62.2-32.3L62.2-32.3Q62.45-31.98 62.45-31.79L62.45-31.79Q62.45-31.57 62.2-31.3L62.2-31.3Q61.45-30.44 60.76-29.83 60.08-29.22 59.45-28.78L59.45-28.78Q59.1-28.59 58.57-28.59L58.57-28.59 51.73-28.59Q50.12-28.59 49.53-27.91 48.95-27.22 48.95-25.56L48.95-25.56 48.95-20.83 57.71-20.83Q58.3-20.83 58.59-20.63L58.59-20.63Q59.23-20.19 59.91-19.58 60.59-18.97 61.35-18.12L61.35-18.12Q61.59-17.8 61.59-17.6L61.59-17.6Q61.59-17.38 61.35-17.11L61.35-17.11Q60.59-16.26 59.91-15.65 59.23-15.04 58.59-14.6L58.59-14.6Q58.25-14.4 57.71-14.4L57.71-14.4 48.95-14.4 48.95-9.47Q48.95-7.84 49.53-7.13 50.12-6.42 51.73-6.42L51.73-6.42 59.37-6.42Q59.96-6.42 60.25-6.23L60.25-6.23Q60.89-5.79 61.57-5.18 62.25-4.57 63.01-3.71L63.01-3.71Q63.25-3.39 63.25-3.2L63.25-3.2Q63.25-2.98 63.01-2.71L63.01-2.71Q62.25-1.86 61.57-1.25 60.89-0.63 60.25-0.2L60.25-0.2Q59.91 0 59.37 0L59.37 0ZM77.85 0.59L77.85 0.59Q74.75 0.59 72.71 0.02 70.67-0.54 69.44-1.38 68.21-2.22 67.55-3.05L67.55-3.05Q67.33-3.37 67.16-3.66 66.99-3.96 66.91-4.32L66.91-4.32Q66.82-4.81 66.72-5.6 66.62-6.4 66.69-7.45L66.69-7.45Q66.72-7.89 66.87-8.06L66.87-8.06Q67.04-8.25 67.43-8.35L67.43-8.35Q68.13-8.52 69.27-8.65 70.41-8.79 70.89-8.79L70.89-8.79Q71.41-8.79 71.72-8.59 72.04-8.4 72.48-7.93L72.48-7.93Q72.97-7.42 74.16-6.63 75.36-5.83 77.85-5.83L77.85-5.83Q80.24-5.83 81.46-6.84 82.69-7.84 82.69-9.62L82.69-9.62Q82.69-10.57 82.11-11.41 81.54-12.26 80.02-13.1 78.51-13.94 75.7-14.87L75.7-14.87Q71.06-16.43 69.01-18.75 66.96-21.07 66.96-25.2L66.96-25.2Q66.96-28.61 68.62-30.91 70.28-33.2 73.21-34.38 76.14-35.55 79.98-35.55L79.98-35.55Q82.93-35.55 84.87-34.85 86.81-34.16 87.89-33.29 88.96-32.42 89.28-31.88L89.28-31.88Q89.47-31.57 89.53-31.41 89.59-31.25 89.62-30.98L89.62-30.98Q89.69-30.22 89.67-29.3 89.64-28.37 89.5-27.2L89.5-27.2Q89.42-26.81 89.23-26.66L89.23-26.66Q89.06-26.54 88.69-26.54L88.69-26.54Q86.32-26.49 85.03-26.78L85.03-26.78Q84.52-26.9 84.35-27.03 84.17-27.15 83.91-27.42L83.91-27.42Q83.52-27.88 82.67-28.5 81.83-29.13 79.98-29.13L79.98-29.13Q77.41-29.13 76.34-27.97 75.26-26.81 75.26-25.37L75.26-25.37Q75.26-23.66 76.85-22.69 78.44-21.73 81.86-20.51L81.86-20.51Q84.71-19.51 86.76-18.33 88.81-17.16 89.9-15.33 90.99-13.5 90.99-10.5L90.99-10.5Q90.99-6.76 89.27-4.3 87.54-1.83 84.58-0.62 81.61 0.59 77.85 0.59ZM104.97-31.1L104.97-1.29Q104.97-0.56 104.67-0.28 104.36 0 103.63 0L103.63 0 98.43 0Q97.7 0 97.39-0.28 97.09-0.56 97.09-1.29L97.09-1.29 97.09-31.1Q97.09-31.81 97.33-32.18L97.33-32.18Q98.43-33.79 100.41-35.57L100.41-35.57Q100.77-35.86 101.04-35.86L101.04-35.86Q101.34-35.86 101.65-35.57L101.65-35.57Q102.73-34.64 103.46-33.8 104.19-32.96 104.73-32.18L104.73-32.18Q104.97-31.79 104.97-31.1L104.97-31.1ZM141.15-14.43L141.15-2.39Q140.57-1.98 139.06-1.26 137.56-0.54 134.93 0.02 132.29 0.59 128.31 0.59L128.31 0.59Q122.96 0.59 119.09-1.18 115.22-2.95 113.15-6.92 111.07-10.89 111.07-17.43L111.07-17.43Q111.07-26.15 115.54-30.87 120.01-35.6 127.99-35.6L127.99-35.6Q131.8-35.6 134.07-34.86 136.34-34.13 137.51-33.15 138.69-32.18 139.15-31.45L139.15-31.45Q139.32-31.18 139.39-30.97 139.47-30.76 139.49-30.32L139.49-30.32Q139.57-29.74 139.53-28.61 139.49-27.49 139.35-26.64L139.35-26.64Q139.25-26.1 139.03-25.93L139.03-25.93Q138.93-25.83 138.69-25.76 138.44-25.68 137.95-25.68L137.95-25.68Q137.17-25.68 136.14-25.74 135.1-25.81 134.61-25.88L134.61-25.88Q134.02-25.98 133.77-26.16 133.51-26.34 133.22-26.73L133.22-26.73Q132.92-27.12 132.41-27.65 131.9-28.17 130.86-28.59 129.82-29 127.99-29L127.99-29Q123.96-29 121.67-26.09 119.37-23.17 119.37-17.7L119.37-17.7Q119.37-11.96 121.76-8.98 124.14-6.01 128.6-6.01L128.6-6.01Q130.85-6.01 131.91-6.34 132.97-6.67 133.27-6.84L133.27-6.84 133.27-14.43Q133.27-15.14 133.51-15.5L133.51-15.5Q134.61-17.11 136.59-18.9L136.59-18.9Q136.95-19.19 137.22-19.19L137.22-19.19Q137.51-19.19 137.83-18.9L137.83-18.9Q138.91-17.97 139.64-17.13 140.37-16.28 140.91-15.5L140.91-15.5Q141.15-15.11 141.15-14.43L141.15-14.43ZM155.19-25.29L155.19-1.29Q155.19-0.56 154.91-0.28 154.63 0 153.92 0L153.92 0 149.01 0Q148.33 0 148.03-0.28 147.74-0.56 147.74-1.29L147.74-1.29 147.74-32.23Q147.74-33.67 148.3-34.34 148.86-35.01 150.28-35.01L150.28-35.01 152.55-35.01Q153.8-35.01 154.91-34.68 156.02-34.35 157.28-33.2 158.53-32.06 160.2-29.65 161.88-27.25 164.25-23.1L164.25-23.1Q166.52-19.14 167.9-16.77 169.27-14.4 170.03-13.16 170.79-11.91 171.17-11.38 171.55-10.84 171.79-10.5L171.79-10.5 171.79-31.1Q171.79-31.81 172.01-32.18L172.01-32.18Q173.06-33.79 174.91-35.57L174.91-35.57Q175.28-35.86 175.52-35.86L175.52-35.86Q175.79-35.86 176.11-35.57L176.11-35.57Q177.11-34.64 177.81-33.8 178.5-32.96 179.02-32.18L179.02-32.18Q179.24-31.79 179.24-31.1L179.24-31.1 179.24-2.03Q179.24-0.93 178.82-0.46 178.41 0 177.31 0L177.31 0 174.96 0Q173.91 0 172.81-0.35 171.72-0.71 170.32-1.97 168.93-3.22 167.03-5.88 165.12-8.54 162.44-13.16L162.44-13.16Q160.17-17.09 158.81-19.41 157.46-21.73 156.75-22.91 156.04-24.1 155.72-24.57 155.41-25.05 155.19-25.29L155.19-25.29ZM192.32-2.27L192.32-2.27Q191.27-4.25 190.17-7.29 189.07-10.33 188.07-13.82 187.07-17.31 186.29-20.72 185.51-24.12 185.06-26.9 184.6-29.69 184.6-31.25L184.6-31.25Q184.6-31.88 184.87-32.25L184.87-32.25Q185.43-33.03 186.25-33.87 187.07-34.72 188.19-35.64L188.19-35.64Q188.56-35.94 188.88-35.94L188.88-35.94Q189.19-35.94 189.51-35.64L189.51-35.64Q190.66-34.72 191.46-33.87 192.27-33.03 192.83-32.25L192.83-32.25Q193.1-31.88 193.1-31.18L193.1-31.18 193.1-31.27Q193.1-29.66 193.53-26.92 193.95-24.17 194.65-20.91 195.35-17.65 196.16-14.49 196.98-11.33 197.79-8.86L197.79-8.86 197.93-8.86Q199.25-12.13 200.4-15.97 201.55-19.8 202.55-23.8 203.55-27.81 204.43-31.59L204.43-31.59Q204.7-32.69 205.34-33.12 205.99-33.54 207.38-33.54L207.38-33.54 210.31-33.54Q211.56-33.54 212.17-33.18 212.78-32.81 213.05-31.59L213.05-31.59Q213.68-28.76 214.49-25.61 215.29-22.46 216.16-19.35 217.03-16.24 217.92-13.53 218.81-10.82 219.61-8.86L219.61-8.86 219.76-8.86Q220.79-11.18 221.6-14.33 222.42-17.48 223-20.76 223.57-24.05 223.87-26.86 224.18-29.66 224.18-31.27L224.18-31.27 224.18-31.18Q224.18-31.88 224.42-32.25L224.42-32.25Q225.6-33.86 227.65-35.64L227.65-35.64Q228.04-35.94 228.33-35.94L228.33-35.94Q228.6-35.94 228.96-35.64L228.96-35.64Q230.06-34.72 230.84-33.87 231.63-33.03 232.19-32.25L232.19-32.25Q232.43-31.86 232.43-31.2L232.43-31.2Q232.43-29.15 231.97-26.27 231.5-23.39 230.71-20.13 229.92-16.87 228.93-13.62 227.94-10.38 226.85-7.56 225.77-4.74 224.72-2.78L224.72-2.78Q223.84-1.15 223.14-0.57 222.45 0 221.15 0L221.15 0 218.15 0Q217.05 0 216.31-0.49 215.56-0.98 214.76-2.32L214.76-2.32Q214.15-3.34 213.35-5.2 212.56-7.06 211.76-9.24 210.97-11.43 210.34-13.48 209.7-15.53 209.41-16.94L209.41-16.94Q209.07-18.55 208.84-20.06 208.6-21.56 208.55-22.41L208.55-22.41 208.36-22.41Q208.31-21.56 208.05-20.06 207.8-18.55 207.43-16.94L207.43-16.94Q207.07-15.33 206.45-13.26 205.84-11.18 205.11-9.08 204.38-6.98 203.65-5.2 202.91-3.42 202.28-2.37L202.28-2.37Q201.57-1.17 200.73-0.59 199.89 0 198.4 0L198.4 0 195.64 0Q194.35 0 193.69-0.46 193.03-0.93 192.32-2.27ZM232.43-31.27L232.43-31.27 232.43-31.18 232.43-31.2Q232.43-31.25 232.43-31.27ZM184.6-31.18L184.6-31.27 184.6-31.25 184.6-31.18ZM256.65-33.08L256.65-33.08Q257.99-31.2 259.39-28.23 260.8-25.27 262.12-21.73 263.43-18.19 264.5-14.49 265.56-10.79 266.24-7.37 266.93-3.96 267.02-1.29L267.02-1.29Q267.05 0 265.85 0L265.85 0 259.94 0Q258.8 0 258.75-1.15L258.75-1.15Q258.65-3.88 257.87-7.79L257.87-7.79 244.54-7.79Q243.85-3.98 243.76-1.15L243.76-1.15Q243.71 0 242.51 0L242.51 0 236.73 0Q236.29 0 235.99-0.26 235.7-0.51 235.72-1.15L235.72-1.15Q235.85-3.86 236.52-7.31 237.19-10.77 238.26-14.48 239.34-18.19 240.66-21.74 241.97-25.29 243.39-28.25 244.81-31.2 246.15-33.08L246.15-33.08Q246.86-34.08 247.65-34.55 248.44-35.01 249.62-35.01L249.62-35.01 253.13-35.01Q254.33-35.01 255.13-34.55 255.94-34.08 256.65-33.08ZM251.28-27.29L251.13-27.29Q249.52-24.73 248.18-21.17 246.83-17.6 245.86-13.84L245.86-13.84 256.45-13.84Q255.43-17.6 254.08-21.17 252.74-24.73 251.28-27.29L251.28-27.29ZM280.84-1.93L280.84-1.93Q278.89-5 277.02-8.83 275.15-12.65 273.64-16.69 272.12-20.73 271.22-24.48 270.32-28.22 270.32-31.18L270.32-31.18Q270.32-31.81 270.59-32.18L270.59-32.18Q271.15-32.96 271.96-33.8 272.78-34.64 273.91-35.57L273.91-35.57Q274.27-35.86 274.59-35.86L274.59-35.86Q274.91-35.86 275.22-35.57L275.22-35.57Q276.37-34.64 277.18-33.8 277.98-32.96 278.54-32.18L278.54-32.18Q278.81-31.81 278.81-31.1L278.81-31.1 278.81-31.2Q278.81-29.13 279.39-26.21 279.96-23.29 280.97-20.08 281.99-16.87 283.29-13.85 284.6-10.84 286.09-8.59L286.09-8.59 286.23-8.59Q287.87-10.84 289.2-13.83 290.53-16.82 291.5-20.02 292.46-23.22 292.99-26.14 293.51-29.05 293.51-31.18L293.51-31.18 293.51-31.1Q293.51-31.81 293.75-32.18L293.75-32.18Q294.93-33.79 296.98-35.57L296.98-35.57Q297.37-35.86 297.66-35.86L297.66-35.86Q297.93-35.86 298.3-35.57L298.3-35.57Q299.39-34.64 300.18-33.8 300.96-32.96 301.52-32.18L301.52-32.18Q301.76-31.79 301.76-31.13L301.76-31.13Q301.76-28.91 301.14-25.99 300.52-23.07 299.44-19.82 298.37-16.58 297-13.33 295.63-10.08 294.12-7.14 292.61-4.2 291.09-1.93L291.09-1.93Q289.82 0 287.63 0L287.63 0 284.26 0Q282.06 0 280.84-1.93ZM270.32-31.1L270.32-31.2 270.32-31.18 270.32-31.1ZM301.76-31.13L301.76-31.18 301.76-31.1 301.76-31.13ZM325.44 0L313.16 0Q310.65 0 309.34-0.63 308.03-1.27 307.58-2.71 307.13-4.15 307.13-6.54L307.13-6.54 307.13-28.47Q307.13-30.91 307.58-32.34 308.03-33.76 309.34-34.39 310.65-35.01 313.16-35.01L313.16-35.01 324.64-35.01Q325.22-35.01 325.51-34.81L325.51-34.81Q326.15-34.38 326.83-33.76 327.52-33.15 328.27-32.3L328.27-32.3Q328.52-31.98 328.52-31.79L328.52-31.79Q328.52-31.57 328.27-31.3L328.27-31.3Q327.52-30.44 326.83-29.83 326.15-29.22 325.51-28.78L325.51-28.78Q325.17-28.59 324.64-28.59L324.64-28.59 317.8-28.59Q316.19-28.59 315.6-27.91 315.02-27.22 315.02-25.56L315.02-25.56 315.02-20.83 323.78-20.83Q324.37-20.83 324.66-20.63L324.66-20.63Q325.29-20.19 325.98-19.58 326.66-18.97 327.42-18.12L327.42-18.12Q327.66-17.8 327.66-17.6L327.66-17.6Q327.66-17.38 327.42-17.11L327.42-17.11Q326.66-16.26 325.98-15.65 325.29-15.04 324.66-14.6L324.66-14.6Q324.32-14.4 323.78-14.4L323.78-14.4 315.02-14.4 315.02-9.47Q315.02-7.84 315.6-7.13 316.19-6.42 317.8-6.42L317.8-6.42 325.44-6.42Q326.03-6.42 326.32-6.23L326.32-6.23Q326.96-5.79 327.64-5.18 328.32-4.57 329.08-3.71L329.08-3.71Q329.32-3.39 329.32-3.2L329.32-3.2Q329.32-2.98 329.08-2.71L329.08-2.71Q328.32-1.86 327.64-1.25 326.96-0.63 326.32-0.2L326.32-0.2Q325.98 0 325.44 0L325.44 0Z" fill="#624cf5" data-fill-palette-color="primary"></path></g></svg></g></svg></g></svg></g></svg></g><g><svg viewBox="0 0 94.91430754709582 94.91430754709582" height="94.91430754709582" width="94.91430754709582"><g><svg></svg></g><g id="icon-0"><svg viewBox="0 0 94.91430754709582 94.91430754709582" height="94.91430754709582" width="94.91430754709582"><g><path d="M0 47.457c0-26.21 21.247-47.457 47.457-47.457 26.21 0 47.457 21.247 47.457 47.457 0 26.21-21.247 47.457-47.457 47.457-26.21 0-47.457-21.247-47.457-47.457zM47.457 91.291c24.209 0 43.834-19.625 43.834-43.834 0-24.209-19.625-43.834-43.834-43.834-24.209 0-43.834 19.625-43.834 43.834 0 24.209 19.625 43.834 43.834 43.834z" data-fill-palette-color="accent" fill="#624cf5" stroke="transparent"></path></g><g transform="matrix(1,0,0,1,21.120349313949955,25.363213686616024)"><svg viewBox="0 0 52.67360891919591 44.18788017386377" height="44.18788017386377" width="52.67360891919591"><g><svg xmlns="http://www.w3.org/2000/svg" xmlns:xlink="http://www.w3.org/1999/xlink" version="1.0" x="0" y="0" viewBox="24.5 28.700000000000006 50.89999999999999 42.7" enable-background="new 0 0 100 100" xml:space="preserve" height="44.18788017386377" width="52.67360891919591" class="icon-cg-0" data-fill-palette-color="accent" id="cg-0"><path d="M73.4 71.4H30.5c-0.9 0-1.6-0.7-1.6-1.6s0.7-1.6 1.6-1.6h42.9c0.9 0 1.6 0.7 1.6 1.6S74.3 71.4 73.4 71.4z" fill="#624cf5" data-fill-palette-color="accent"></path><path d="M29.9 71.4c-0.5 0-1.1-0.3-1.4-0.8-2.6-4.3-4-9.2-4-14.2 0-15.3 12.5-27.7 27.8-27.7 3.2 0 6.4 0.5 9.4 1.6 0.8 0.3 1.3 1.2 1 2.1-0.3 0.8-1.2 1.3-2.1 1-2.6-0.9-5.4-1.4-8.3-1.4-13.6 0-24.6 11-24.6 24.5 0 4.4 1.2 8.8 3.5 12.6 0.5 0.8 0.2 1.8-0.5 2.2C30.5 71.3 30.2 71.4 29.9 71.4z" fill="#624cf5" data-fill-palette-color="accent"></path><path d="M57.3 51.9c-3.2 0-6.3-1.7-8.3-4.7-0.5-0.7-0.3-1.7 0.5-2.2 0.7-0.5 1.7-0.3 2.2 0.5 1.3 2 3.4 3.2 5.6 3.2 3.9 0 7-3.7 7-8.2 0-3.4-0.1-5.2-3.2-6.9-0.8-0.4-1.1-1.4-0.6-2.2 0.4-0.8 1.4-1.1 2.2-0.6 4.9 2.7 4.9 6.4 4.9 9.7C67.6 46.7 63 51.9 57.3 51.9z" fill="#624cf5" data-fill-palette-color="accent"></path><path d="M50.7 48.2c-0.9 0-1.6-0.7-1.6-1.6s0.7-1.6 1.6-1.6c2.3 0 4.2-1.5 4.2-3.4 0-1.9-1.9-3.4-4.2-3.4-0.9 0-1.6-0.7-1.6-1.6s0.7-1.6 1.6-1.6c4.1 0 7.4 3 7.4 6.6C58.1 45.2 54.7 48.2 50.7 48.2z" fill="#624cf5" data-fill-palette-color="accent"></path><path d="M73.8 63.7H55.5c-8.8 0-16-7.6-16-16.9 0-0.9 0.7-1.6 1.6-1.6s1.6 0.7 1.6 1.6c0 7.5 5.7 13.7 12.8 13.7h18.3c0.9 0 1.6 0.7 1.6 1.6S74.7 63.7 73.8 63.7z" fill="#624cf5" data-fill-palette-color="accent"></path><path d="M41.1 49.5c-0.9 0-1.6-0.7-1.6-1.6C39.5 39.7 43.7 35 51 35c0.9 0 1.6 0.7 1.6 1.6s-0.7 1.6-1.6 1.6c-5.5 0-8.3 3.2-8.3 9.6C42.7 48.8 42 49.5 41.1 49.5z" fill="#624cf5" data-fill-palette-color="accent"></path></svg></g></svg></g></svg></g></svg></g></svg></g><defs></defs></svg><rect width="395.52" height="73.69482441345792" fill="none" stroke="none" visibility="hidden"></rect></g></svg></g></svg>